<?xml version="1.0" encoding="UTF-8"?>
<svg id="Layer_1" xmlns="http://www.w3.org/2000/svg" version="1.1" viewBox="0 0 800 800">
  <!-- Generator: Adobe Illustrator 30.0.0, SVG Export Plug-In . SVG Version: 2.1.1 Build 123)  -->
  <defs>
    <style>
      .st0 {
        fill: none;
        stroke: #fff;
        stroke-linecap: round;
        stroke-linejoin: round;
        stroke-width: 48px;
      }
    </style>
  </defs>
  <path class="st0" d="M384.01,184.03c-128.99-2.18-262.4,87.97-346.27,180.29-8.8,9.77-13.68,22.46-13.68,35.62s4.87,25.84,13.68,35.62c82.05,90.37,215.07,182.59,346.27,180.38,131.2,2.21,264.26-90.02,346.37-180.38,8.8-9.77,13.68-22.46,13.68-35.62s-4.87-25.84-13.68-35.62c-83.97-92.32-217.38-182.46-346.37-180.29Z"/>
  <path class="st0" d="M504,400c0,23.73-7.05,46.93-20.24,66.66-13.19,19.73-31.93,35.11-53.86,44.18-21.93,9.08-46.05,11.45-69.33,6.82-23.28-4.63-44.65-16.06-61.43-32.85-16.78-16.78-28.2-38.17-32.83-61.44-4.63-23.28-2.25-47.4,6.83-69.33,9.08-21.93,24.46-40.66,44.2-53.85,19.73-13.18,42.93-20.22,66.66-20.22,15.76,0,31.37,3.1,45.94,9.13,14.56,6.03,27.79,14.87,38.94,26.02,11.15,11.15,19.98,24.38,26.01,38.95,6.03,14.56,9.13,30.17,9.12,45.94Z"/>
</svg>